HIERARCHY
ROOT Hips
{
  OFFSET -69.4423 88.0299 51.6846
  CHANNELS 6 Xposition Yposition Zposition Zrotation Xrotation Yrotation
  JOINT Spine
  {
    OFFSET 12.0259 -0.162853 1.93176e-005
    CHANNELS 3 Zrotation Xrotation Yrotation
    JOINT Spine1
    {
      OFFSET 15.3169 -0.0121909 0
      CHANNELS 3 Zrotation Xrotation Yrotation
      JOINT Spine2
      {
        OFFSET 15.3176 -0.0121922 0
        CHANNELS 3 Zrotation Xrotation Yrotation
        JOINT Neck
        {
          OFFSET 19.9142 1.56236 0
          CHANNELS 3 Zrotation Xrotation Yrotation
          JOINT Head
          {
            OFFSET 6.92646 0 0
            CHANNELS 3 Zrotation Xrotation Yrotation
            End Site
            {
              OFFSET 20.7666 0 0
            }
          }
          JOINT LeftShoulder
          {
            OFFSET -4.94072 -1.14703 8.14416
            CHANNELS 3 Zrotation Xrotation Yrotation
            JOINT LeftArm
            {
              OFFSET 14.108 0 -2.74767e-005
              CHANNELS 3 Zrotation Xrotation Yrotation
              JOINT LeftForeArm
              {
                OFFSET 28.5802 -0.0783412 -0.0284884
                CHANNELS 3 Zrotation Xrotation Yrotation
                JOINT LeftHand
                {
                  OFFSET 27.092 0 0
                  CHANNELS 3 Zrotation Xrotation Yrotation
                  End Site
                  {
                    OFFSET 9.55928 -0.186424 0.145352
                  }
                }
              }
            }
          }
          JOINT RightShoulder
          {
            OFFSET -7.15748 -1.33027 -6.24935
            CHANNELS 3 Zrotation Xrotation Yrotation
            JOINT RightArm
            {
              OFFSET 14.108 0 1.82997e-005
              CHANNELS 3 Zrotation Xrotation Yrotation
              JOINT RightForeArm
              {
                OFFSET 28.5802 -0.0707221 2.30684e-005
                CHANNELS 3 Zrotation Xrotation Yrotation
                JOINT RightHand
                {
                  OFFSET 27.092 0 -1.30073e-005
                  CHANNELS 3 Zrotation Xrotation Yrotation
                  End Site
                  {
                    OFFSET 9.55929 -0.186417 -0.145354
                  }
                }
              }
            }
          }
        }
      }
    }
  }
  JOINT LeftUpLeg
  {
    OFFSET 0.00499725 -0.534999 8.837
    CHANNELS 3 Zrotation Xrotation Yrotation
    JOINT LeftLeg
    {
      OFFSET 39.9035 -0.00124594 0.000252775
      CHANNELS 3 Zrotation Xrotation Yrotation
      JOINT LeftFoot
      {
        OFFSET 39.6689 0 0
        CHANNELS 3 Zrotation Xrotation Yrotation
        JOINT LeftToe
        {
          OFFSET 10.1624 13.6296 0
          CHANNELS 3 Zrotation Xrotation Yrotation
          End Site
          {
            OFFSET 8.38147 0 0
          }
        }
      }
    }
  }
  JOINT RightUpLeg
  {
    OFFSET 0.00499725 -0.535 -8.837
    CHANNELS 3 Zrotation Xrotation Yrotation
    JOINT RightLeg
    {
      OFFSET 39.9036 -0.000268477 0.000106433
      CHANNELS 3 Zrotation Xrotation Yrotation
      JOINT RightFoot
      {
        OFFSET 39.6689 1.17892e-005 0
        CHANNELS 3 Zrotation Xrotation Yrotation
        JOINT RightToe
        {
          OFFSET 10.1624 13.6296 0
          CHANNELS 3 Zrotation Xrotation Yrotation
          End Site
          {
            OFFSET 8.38147 0 0
          }
        }
      }
    }
  }
}
MOTION
Frames:	9
Frame Time:	0.0333333
0.928422 89.953 7.37629 -94.3492 -63.7695 173.971 0.963564 0.000180207 0.324691 1.92713 0.00627094 0.649488 1.92711 0.0062702 0.649475 -16.0776 -6.39922 -14.8778 54.3145 -2.17307 20.2893 -167.405 -9.59366 -96.8473 -29.1948 8.80789 88.8576 -23.1119 2.56977 -15.0395 5.15379 -82.5889 7.00905 -167.125 -11.0194 72.0525 -24.6947 -4.05848 -87.0421 -34.4329 -6.20728 20.3783 5.89508 87.1578 -5.82742 -0.514315 4.26133 179.585 -7.84759 0.870457 -1.28761 -2.08956 -12.6269 -1.33487 90 2.22639e-014 1.43125e-014 -12.3079 -12.2785 177.825 -26.6034 -0.422825 0.0283973 5.70107 21.7743 -0.0751268 90 1.90833e-014 6.36111e-015 
0.757816 89.9946 7.66212 -93.6618 -58.6535 175.204 0.894927 0.157409 0.157765 1.7895 0.317756 0.313222 1.78948 0.317745 0.313204 -15.6211 -6.54003 -15.2335 53.9108 -2.10064 21.0214 -167.947 -9.73256 -97.2585 -29.3944 9.31673 88.6443 -23.0928 2.55563 -15.0057 4.73841 -82.1704 6.60391 -167.687 -11.1489 71.667 -24.8961 -4.49723 -87.2654 -34.5094 -6.22772 20.4106 5.70008 87.0941 -5.61247 1.26405 6.18275 178.594 -5.15485 0.850315 -1.37775 -3.1209 -15.2073 -1.85748 90 2.10712e-014 2.22639e-014 -14.1825 -15.1517 176.213 -30.2531 -0.382016 0.0224299 6.74839 22.992 -0.54222 90 -1.11319e-014 -3.18055e-015 
0.64166 90.0398 7.82386 -92.7584 -53.8053 176.711 0.865588 0.27752 -0.0257857 1.73133 0.555064 -0.0556135 1.73132 0.555057 -0.0556215 -15.513 -6.60036 -15.2892 53.8673 -2.26505 21.1978 -168.07 -9.77106 -97.3123 -28.2984 9.42117 88.2184 -23.046 2.56399 -14.9769 4.21578 -81.9225 6.09669 -167.82 -11.1888 71.612 -24.7239 -4.64206 -87.2889 -34.052 -6.0726 20.1802 5.01236 86.7851 -4.90958 3.82605 7.78926 177.432 -1.7435 0.85912 -1.50129 -3.94432 -17.3409 -2.50849 90 5.1684e-015 9.54166e-015 -15.5886 -16.8178 174.458 -34.1661 -0.33878 0.00803465 7.00442 23.3318 -0.677811 90 6.36111e-015 9.54166e-015 
0.784845 90.0199 8.16198 -92.0533 -48.8404 177.274 0.750356 0.405648 -0.00658852 1.50087 0.811586 -0.0183277 1.50084 0.811593 -0.0183421 -15.0779 -6.56205 -15.4112 53.6566 -2.09915 21.3076 -168.555 -9.70116 -97.5778 -26.3326 10.2427 88.7284 -23.9061 2.7487 -15.416 4.31198 -82.127 6.231 -168.26 -11.0557 71.4249 -24.4616 -5.27276 -87.104 -33.3936 -5.86834 19.8799 5.10015 86.8368 -5.02097 4.48517 9.56148 177.172 -1.76365 0.873206 -1.51997 -3.91051 -20.3716 -2.823 90 -7.95139e-016 -1.11319e-014 -16.1352 -18.2631 173.995 -36.9116 -0.318365 -0.0171271 6.45784 24.1373 -0.514048 90 -3.18055e-015 -2.38542e-015 
0.93898 90.0543 8.50996 -91.5185 -44.9849 177.511 0.747545 0.309423 -0.00901672 1.49518 0.619208 -0.0219107 1.49517 0.619183 -0.021917 -15.1098 -6.55734 -15.4412 53.0901 -2.15168 21.677 -168.511 -9.71862 -97.5749 -25.5106 10.1765 87.8008 -23.3982 2.6655 -15.1356 5.8267 -83.5946 7.76676 -168.233 -11.0919 71.3954 -23.8359 -5.09003 -87.0767 -32.7782 -5.67324 19.5764 4.737 86.5879 -4.67106 4.98142 10.2227 177.271 -1.76824 0.880239 -1.55634 -3.28671 -23.1831 -2.84887 90 -1.90833e-014 -7.95139e-015 -15.9114 -19.6815 173.859 -38.9538 -0.300624 -0.0578749 4.59502 24.8678 0.232932 90 3.18055e-015 3.97569e-015 
1.19582 90.0323 8.91034 -91.2773 -41.0533 178.163 0.79803 0.396175 -0.0700674 1.59661 0.791805 -0.145499 1.5966 0.791801 -0.145506 -15.708 -6.66925 -15.5949 52.9268 -2.83116 21.878 -167.95 -9.98401 -97.5809 -25.3816 9.72691 87.1618 -23.2545 2.64098 -15.0524 6.52721 -84.0627 8.46998 -167.684 -11.3713 71.3568 -22.2071 -4.72781 -86.6147 -32.5132 -5.60053 19.4319 4.81264 86.6272 -4.74756 5.39526 10.8955 176.67 -1.76157 0.886738 -1.60016 -2.99538 -26.4473 -2.97075 90 -6.75868e-015 -7.95139e-015 -15.6565 -20.9903 173.129 -40.2178 -0.292825 -0.105274 3.19442 22.9347 0.840796 90 -1.59028e-015 1.59028e-015 
1.49663 89.9448 9.47579 -91.2622 -37.8195 178.379 0.605437 0.107041 -0.109704 1.21109 0.213678 -0.220382 1.21108 0.21367 -0.220399 -15.5512 -6.33141 -15.5453 52.8344 -2.10596 21.7514 -168.034 -9.63658 -97.6617 -25.3778 10.6413 86.7791 -23.2086 2.63037 -14.9827 8.29619 -84.7134 10.2334 -167.775 -10.9962 71.3275 -22.0489 -5.61556 -86.882 -32.6056 -5.6358 19.4965 5.40089 87.0047 -5.35868 5.48119 10.898 176.548 -1.74226 0.892796 -1.64 -3.128 -28.8621 -3.19979 90 -1.19271e-015 1.59028e-015 -14.3718 -21.3878 173.577 -39.6891 -0.31862 -0.150272 3.38888 19.898 0.748864 90 -1.59028e-015 -7.95139e-016 
1.86067 89.7245 10.1763 -91.5425 -34.5948 178.458 0.448338 -0.00723332 -0.123091 0.896707 -0.0151059 -0.246979 0.896705 -0.0151035 -0.246989 -15.8708 -6.17311 -15.5555 53.0487 -2.18829 21.4341 -167.682 -9.5569 -97.6563 -24.3185 10.6108 86.2269 -23.1124 2.62106 -14.9187 7.18945 -84.0119 9.11143 -167.439 -10.9179 71.3428 -21.4108 -6.16138 -86.8138 -32.5818 -5.63425 19.478 5.19289 86.8773 -5.1205 3.07582 10.934 176.689 -5.99434 0.897026 -1.55115 0.0308957 -32.2581 -1.08054 90 3.57812e-015 1.27222e-014 -12.4106 -20.8991 174.868 -36.9012 -0.371994 -0.203182 3.61193 16.6843 0.636595 90 0 -7.95139e-016 
2.28948 89.5596 10.8949 -91.721 -31.6694 178.746 0.256628 -0.123045 -0.161259 0.512938 -0.246337 -0.321791 0.512923 -0.246332 -0.321808 -15.6289 -6.03254 -15.763 53.1225 -1.87066 21.4185 -167.928 -9.41991 -97.9602 -23.6867 11.0697 85.9046 -23.3203 2.65424 -15.0054 6.50251 -83.8799 8.37431 -167.696 -10.768 71.0772 -20.4426 -6.81456 -86.8115 -32.3555 -5.5694 19.3655 5.46888 87.0789 -5.37379 2.54701 10.6299 176.667 -6.91212 0.899688 -1.54672 1.06089 -34.9121 -0.0378364 90 -2.38542e-015 -1.11319e-014 -9.72383 -18.4481 176.573 -32.167 -0.443145 -0.160199 6.18971 17.1613 -0.130679 90 -1.59028e-015 2.38542e-015 
